<mxfile host="app.diagrams.net" modified="2023-05-31T20:27:05.551Z" agent="Mozilla/5.0 (Macintosh; Intel Mac OS X 10_15_7) AppleWebKit/537.36 (KHTML, like Gecko) Chrome/113.0.0.0 Safari/537.36" etag="P38Q6rtJWFcz0EmjeH_m" version="21.3.2" type="device">
  <diagram name="‫עמוד-1‬" id="OCWOKKzRq2ErDXvsnQ9Z">
    <mxGraphModel dx="1434" dy="805" grid="1" gridSize="10" guides="1" tooltips="1" connect="1" arrows="1" fold="1" page="1" pageScale="1" pageWidth="827" pageHeight="1169" math="0" shadow="0">
      <root>
        <mxCell id="0" />
        <mxCell id="1" parent="0" />
        <mxCell id="B8q39FAsuruZPEWnlk38-1" value="web server" style="rounded=1;whiteSpace=wrap;html=1;fillColor=#fff2cc;strokeColor=#d6b656;" vertex="1" parent="1">
          <mxGeometry x="40" y="190" width="200" height="70" as="geometry" />
        </mxCell>
        <mxCell id="B8q39FAsuruZPEWnlk38-2" value="mongo" style="shape=cylinder3;whiteSpace=wrap;html=1;boundedLbl=1;backgroundOutline=1;size=15;fillColor=#f8cecc;strokeColor=#b85450;" vertex="1" parent="1">
          <mxGeometry x="330" y="60" width="100" height="100" as="geometry" />
        </mxCell>
        <mxCell id="B8q39FAsuruZPEWnlk38-3" value="save complaint" style="endArrow=classic;html=1;rounded=0;exitX=0.5;exitY=0;exitDx=0;exitDy=0;" edge="1" parent="1" source="B8q39FAsuruZPEWnlk38-1" target="B8q39FAsuruZPEWnlk38-2">
          <mxGeometry width="50" height="50" relative="1" as="geometry">
            <mxPoint x="390" y="420" as="sourcePoint" />
            <mxPoint x="440" y="370" as="targetPoint" />
          </mxGeometry>
        </mxCell>
        <mxCell id="B8q39FAsuruZPEWnlk38-4" value="purchaseQ" style="shape=step;perimeter=stepPerimeter;whiteSpace=wrap;html=1;fixedSize=1;fillColor=#e1d5e7;strokeColor=#9673a6;" vertex="1" parent="1">
          <mxGeometry x="370" y="210" width="120" height="80" as="geometry" />
        </mxCell>
        <mxCell id="B8q39FAsuruZPEWnlk38-5" value="userQ" style="shape=step;perimeter=stepPerimeter;whiteSpace=wrap;html=1;fixedSize=1;fillColor=#e1d5e7;strokeColor=#9673a6;" vertex="1" parent="1">
          <mxGeometry x="370" y="310" width="120" height="80" as="geometry" />
        </mxCell>
        <mxCell id="B8q39FAsuruZPEWnlk38-6" value="push message" style="endArrow=classic;html=1;rounded=0;exitX=1;exitY=0.5;exitDx=0;exitDy=0;entryX=0;entryY=0.5;entryDx=0;entryDy=0;" edge="1" parent="1" source="B8q39FAsuruZPEWnlk38-1" target="B8q39FAsuruZPEWnlk38-4">
          <mxGeometry width="50" height="50" relative="1" as="geometry">
            <mxPoint x="390" y="420" as="sourcePoint" />
            <mxPoint x="440" y="370" as="targetPoint" />
          </mxGeometry>
        </mxCell>
        <mxCell id="B8q39FAsuruZPEWnlk38-7" value="push message" style="endArrow=classic;html=1;rounded=0;exitX=1;exitY=0.5;exitDx=0;exitDy=0;entryX=0;entryY=0.5;entryDx=0;entryDy=0;fillColor=#dae8fc;strokeColor=#6c8ebf;" edge="1" parent="1" source="B8q39FAsuruZPEWnlk38-1" target="B8q39FAsuruZPEWnlk38-5">
          <mxGeometry width="50" height="50" relative="1" as="geometry">
            <mxPoint x="390" y="420" as="sourcePoint" />
            <mxPoint x="440" y="370" as="targetPoint" />
          </mxGeometry>
        </mxCell>
        <mxCell id="B8q39FAsuruZPEWnlk38-8" value="user" style="shape=umlActor;verticalLabelPosition=bottom;verticalAlign=top;html=1;outlineConnect=0;" vertex="1" parent="1">
          <mxGeometry x="55" y="460" width="30" height="60" as="geometry" />
        </mxCell>
        <mxCell id="B8q39FAsuruZPEWnlk38-9" value="browser" style="swimlane;whiteSpace=wrap;html=1;fillColor=#dae8fc;strokeColor=#6c8ebf;" vertex="1" parent="1">
          <mxGeometry x="20" y="380" width="95" height="60" as="geometry" />
        </mxCell>
        <mxCell id="B8q39FAsuruZPEWnlk38-10" value="save complaint" style="endArrow=classic;html=1;rounded=0;exitX=0.5;exitY=0;exitDx=0;exitDy=0;entryX=0.5;entryY=1;entryDx=0;entryDy=0;" edge="1" parent="1" source="B8q39FAsuruZPEWnlk38-9" target="B8q39FAsuruZPEWnlk38-1">
          <mxGeometry width="50" height="50" relative="1" as="geometry">
            <mxPoint x="370" y="420" as="sourcePoint" />
            <mxPoint x="420" y="370" as="targetPoint" />
          </mxGeometry>
        </mxCell>
        <mxCell id="B8q39FAsuruZPEWnlk38-11" value="purchaseProcessor" style="ellipse;whiteSpace=wrap;html=1;fillColor=#d5e8d4;strokeColor=#82b366;" vertex="1" parent="1">
          <mxGeometry x="570" y="130" width="120" height="80" as="geometry" />
        </mxCell>
        <mxCell id="B8q39FAsuruZPEWnlk38-12" value="userProcessor" style="ellipse;whiteSpace=wrap;html=1;fillColor=#d5e8d4;strokeColor=#82b366;" vertex="1" parent="1">
          <mxGeometry x="620" y="250" width="120" height="80" as="geometry" />
        </mxCell>
        <mxCell id="B8q39FAsuruZPEWnlk38-13" value="" style="endArrow=classic;html=1;rounded=0;exitX=1;exitY=0.5;exitDx=0;exitDy=0;entryX=0;entryY=1;entryDx=0;entryDy=0;" edge="1" parent="1" source="B8q39FAsuruZPEWnlk38-4" target="B8q39FAsuruZPEWnlk38-11">
          <mxGeometry width="50" height="50" relative="1" as="geometry">
            <mxPoint x="390" y="420" as="sourcePoint" />
            <mxPoint x="440" y="370" as="targetPoint" />
          </mxGeometry>
        </mxCell>
        <mxCell id="B8q39FAsuruZPEWnlk38-14" value="" style="endArrow=classic;html=1;rounded=0;exitX=1;exitY=0.5;exitDx=0;exitDy=0;entryX=0;entryY=1;entryDx=0;entryDy=0;" edge="1" parent="1" source="B8q39FAsuruZPEWnlk38-5" target="B8q39FAsuruZPEWnlk38-12">
          <mxGeometry width="50" height="50" relative="1" as="geometry">
            <mxPoint x="390" y="420" as="sourcePoint" />
            <mxPoint x="440" y="370" as="targetPoint" />
          </mxGeometry>
        </mxCell>
        <mxCell id="B8q39FAsuruZPEWnlk38-15" value="update purchase data" style="endArrow=classic;html=1;rounded=0;exitX=-0.017;exitY=0.375;exitDx=0;exitDy=0;exitPerimeter=0;" edge="1" parent="1" source="B8q39FAsuruZPEWnlk38-11" target="B8q39FAsuruZPEWnlk38-2">
          <mxGeometry width="50" height="50" relative="1" as="geometry">
            <mxPoint x="390" y="420" as="sourcePoint" />
            <mxPoint x="440" y="370" as="targetPoint" />
          </mxGeometry>
        </mxCell>
        <mxCell id="B8q39FAsuruZPEWnlk38-16" value="update user data" style="endArrow=classic;html=1;rounded=0;exitX=1;exitY=0;exitDx=0;exitDy=0;entryX=1;entryY=0;entryDx=0;entryDy=15;entryPerimeter=0;" edge="1" parent="1" source="B8q39FAsuruZPEWnlk38-12" target="B8q39FAsuruZPEWnlk38-2">
          <mxGeometry width="50" height="50" relative="1" as="geometry">
            <mxPoint x="598" y="170" as="sourcePoint" />
            <mxPoint x="440" y="94" as="targetPoint" />
            <Array as="points">
              <mxPoint x="730" y="80" />
            </Array>
          </mxGeometry>
        </mxCell>
        <mxCell id="B8q39FAsuruZPEWnlk38-17" value="customer success" style="shape=umlActor;verticalLabelPosition=bottom;verticalAlign=top;html=1;outlineConnect=0;" vertex="1" parent="1">
          <mxGeometry x="200" y="460" width="30" height="60" as="geometry" />
        </mxCell>
        <mxCell id="B8q39FAsuruZPEWnlk38-18" value="browser" style="swimlane;whiteSpace=wrap;html=1;fillColor=#dae8fc;strokeColor=#6c8ebf;" vertex="1" parent="1">
          <mxGeometry x="170" y="380" width="95" height="60" as="geometry" />
        </mxCell>
        <mxCell id="B8q39FAsuruZPEWnlk38-20" value="get detailed" style="endArrow=classic;html=1;rounded=0;entryX=0.5;entryY=0;entryDx=0;entryDy=0;exitX=0.62;exitY=1.022;exitDx=0;exitDy=0;exitPerimeter=0;" edge="1" parent="1" source="B8q39FAsuruZPEWnlk38-1" target="B8q39FAsuruZPEWnlk38-18">
          <mxGeometry width="50" height="50" relative="1" as="geometry">
            <mxPoint x="370" y="420" as="sourcePoint" />
            <mxPoint x="420" y="370" as="targetPoint" />
          </mxGeometry>
        </mxCell>
        <mxCell id="B8q39FAsuruZPEWnlk38-22" value="external services" style="rounded=1;whiteSpace=wrap;html=1;fillColor=#f5f5f5;fontColor=#333333;strokeColor=#666666;" vertex="1" parent="1">
          <mxGeometry x="540" y="500" width="220" height="90" as="geometry" />
        </mxCell>
        <mxCell id="B8q39FAsuruZPEWnlk38-23" value="" style="endArrow=classic;html=1;rounded=0;exitX=0.208;exitY=0.938;exitDx=0;exitDy=0;exitPerimeter=0;entryX=0.25;entryY=0;entryDx=0;entryDy=0;" edge="1" parent="1" source="B8q39FAsuruZPEWnlk38-11" target="B8q39FAsuruZPEWnlk38-22">
          <mxGeometry width="50" height="50" relative="1" as="geometry">
            <mxPoint x="390" y="420" as="sourcePoint" />
            <mxPoint x="440" y="370" as="targetPoint" />
          </mxGeometry>
        </mxCell>
        <mxCell id="B8q39FAsuruZPEWnlk38-24" value="" style="endArrow=classic;html=1;rounded=0;exitX=0.658;exitY=0.988;exitDx=0;exitDy=0;exitPerimeter=0;entryX=0.75;entryY=0;entryDx=0;entryDy=0;" edge="1" parent="1" source="B8q39FAsuruZPEWnlk38-12" target="B8q39FAsuruZPEWnlk38-22">
          <mxGeometry width="50" height="50" relative="1" as="geometry">
            <mxPoint x="614" y="218" as="sourcePoint" />
            <mxPoint x="605" y="510" as="targetPoint" />
          </mxGeometry>
        </mxCell>
        <mxCell id="B8q39FAsuruZPEWnlk38-25" value="on missing data" style="endArrow=classic;html=1;rounded=0;exitX=1;exitY=1;exitDx=0;exitDy=0;entryX=-0.023;entryY=0.644;entryDx=0;entryDy=0;entryPerimeter=0;" edge="1" parent="1" source="B8q39FAsuruZPEWnlk38-1" target="B8q39FAsuruZPEWnlk38-22">
          <mxGeometry width="50" height="50" relative="1" as="geometry">
            <mxPoint x="390" y="420" as="sourcePoint" />
            <mxPoint x="440" y="370" as="targetPoint" />
            <Array as="points">
              <mxPoint x="360" y="470" />
            </Array>
          </mxGeometry>
        </mxCell>
        <mxCell id="B8q39FAsuruZPEWnlk38-27" value="purchaseProcessor" style="ellipse;whiteSpace=wrap;html=1;fillColor=#d5e8d4;strokeColor=#82b366;" vertex="1" parent="1">
          <mxGeometry x="580" y="140" width="120" height="80" as="geometry" />
        </mxCell>
        <mxCell id="B8q39FAsuruZPEWnlk38-28" value="purchaseProcessor" style="ellipse;whiteSpace=wrap;html=1;fillColor=#d5e8d4;strokeColor=#82b366;" vertex="1" parent="1">
          <mxGeometry x="590" y="150" width="120" height="80" as="geometry" />
        </mxCell>
        <mxCell id="B8q39FAsuruZPEWnlk38-29" value="userProcessor" style="ellipse;whiteSpace=wrap;html=1;fillColor=#d5e8d4;strokeColor=#82b366;" vertex="1" parent="1">
          <mxGeometry x="630" y="260" width="120" height="80" as="geometry" />
        </mxCell>
        <mxCell id="B8q39FAsuruZPEWnlk38-30" value="userProcessor" style="ellipse;whiteSpace=wrap;html=1;fillColor=#d5e8d4;strokeColor=#82b366;" vertex="1" parent="1">
          <mxGeometry x="640" y="270" width="120" height="80" as="geometry" />
        </mxCell>
        <mxCell id="B8q39FAsuruZPEWnlk38-31" value="userProcessor" style="ellipse;whiteSpace=wrap;html=1;fillColor=#d5e8d4;strokeColor=#82b366;" vertex="1" parent="1">
          <mxGeometry x="650" y="280" width="120" height="80" as="geometry" />
        </mxCell>
      </root>
    </mxGraphModel>
  </diagram>
</mxfile>
